<svg width="25" height="24" viewBox="0 0 25 24" fill="none" xmlns="http://www.w3.org/2000/svg">
<path fill-rule="evenodd" clip-rule="evenodd" d="M11.4 4C6.98175 4 3.40002 7.58172 3.40002 12C3.40002 16.4183 6.98175 20 11.4 20C13.9127 20 16.1544 18.8427 17.6227 17.0283C17.9701 16.599 18.5997 16.5326 19.0291 16.88C19.4584 17.2274 19.5248 17.8571 19.1774 18.2864C17.3457 20.5499 14.5419 22 11.4 22C5.87718 22 1.40002 17.5228 1.40002 12C1.40002 6.47715 5.87718 2 11.4 2C16.5343 2 20.7649 5.86933 21.3347 10.851L21.3928 10.793C21.7832 10.4024 22.4164 10.4023 22.807 10.7928C23.1976 11.1833 23.1977 11.8164 22.8072 12.207L20.8078 14.207C20.6203 14.3946 20.3659 14.5 20.1007 14.5C19.8355 14.5 19.5811 14.3947 19.3936 14.2072L17.393 12.2072C17.0024 11.8167 17.0023 11.1836 17.3928 10.793C17.7832 10.4024 18.4164 10.4023 18.807 10.7928L19.3748 11.3605C19.049 7.24121 15.603 4 11.4 4ZM11.4 6C11.9523 6 12.4 6.44772 12.4 7V11.4648L14.9547 13.1679C15.4143 13.4743 15.5384 14.0952 15.2321 14.5547C14.9257 15.0142 14.3049 15.1384 13.8453 14.8321L10.8453 12.8321C10.5671 12.6466 10.4 12.3344 10.4 12V7C10.4 6.44772 10.8477 6 11.4 6Z" fill="#4A86F7"/>
</svg>
