<svg width="17" height="22" viewBox="0 0 17 22" fill="none" xmlns="http://www.w3.org/2000/svg">
<path d="M13.9999 22H3.19985C2.54985 22 2.11985 22 1.68985 21.78C1.30985 21.59 1.00985 21.29 0.819854 20.91C0.599854 20.48 0.599854 20.05 0.599854 19.4V17.33C0.599854 16.8 0.599854 16.48 0.679854 16.13C0.749854 15.83 0.869853 15.54 1.03985 15.27C1.21985 14.97 1.44985 14.74 1.81985 14.37L4.75985 11.43C4.95985 11.23 5.15985 11.03 5.20985 10.96C5.17985 10.99 4.95985 10.78 4.76985 10.59L1.83985 7.66001C1.45985 7.28001 1.22985 7.05001 1.04985 6.75001C0.889854 6.48001 0.769854 6.19001 0.689854 5.88001C0.609854 5.54001 0.609854 5.22001 0.609854 4.68001V2.61001C0.609854 1.96001 0.609854 1.53001 0.829854 1.10001C1.01985 0.72001 1.32985 0.42001 1.69985 0.23001C2.12985 0.0100098 2.55985 0.0100098 3.20985 0.0100098H14.0099C14.6599 0.0100098 15.0899 0.0100098 15.5199 0.23001C15.8999 0.42001 16.1999 0.72001 16.3899 1.10001C16.6099 1.53001 16.6099 1.96001 16.6099 2.61001V4.68001C16.6099 5.21001 16.6099 5.53001 16.5299 5.88001C16.4599 6.18001 16.3399 6.48001 16.1699 6.74001C15.9899 7.04001 15.7599 7.26001 15.3899 7.63001L12.4499 10.57C12.2499 10.77 12.0499 10.97 11.9999 11.04C12.0299 11.01 12.2499 11.22 12.4499 11.42L15.3799 14.35C15.7599 14.73 15.9799 14.95 16.1699 15.26C16.3399 15.53 16.4599 15.82 16.5299 16.13C16.6099 16.47 16.6099 16.79 16.6099 17.33V19.4C16.6099 20.05 16.6099 20.48 16.3899 20.91C16.1999 21.29 15.8899 21.59 15.5199 21.78C15.0899 22 14.6599 22 14.0099 22H13.9999ZM3.19985 2.00001C2.91985 2.00001 2.62985 2.00001 2.54985 2.02001C2.59985 2.03001 2.59985 2.32001 2.59985 2.60001V4.67001C2.59985 5.05001 2.59985 5.28001 2.62985 5.40001C2.65985 5.50001 2.69985 5.60001 2.74985 5.69001C2.80985 5.79001 2.96985 5.95001 3.22985 6.21001L6.16985 9.15001C6.62985 9.61001 6.92985 9.91001 7.07985 10.37C7.20985 10.77 7.20985 11.2 7.07985 11.61C6.92985 12.07 6.62985 12.37 6.16985 12.83L3.23985 15.76C2.96985 16.03 2.79985 16.2 2.73985 16.29C2.67985 16.38 2.63985 16.48 2.61985 16.58C2.58985 16.7 2.58985 16.93 2.58985 17.31V19.38C2.58985 19.66 2.58985 19.95 2.60985 20.03C2.61985 19.98 2.90985 19.98 3.18985 19.98H13.9899C14.2699 19.98 14.5599 19.98 14.6399 19.96C14.5899 19.95 14.5899 19.66 14.5899 19.38V17.31C14.5899 16.93 14.5899 16.7 14.5599 16.58C14.5299 16.48 14.4899 16.38 14.4399 16.29C14.3799 16.19 14.2199 16.03 13.9499 15.76L11.0099 12.82C10.5499 12.36 10.2499 12.06 10.0999 11.6C9.96985 11.2 9.96985 10.77 10.0999 10.36C10.2499 9.90001 10.5499 9.60001 11.0099 9.14001L13.9399 6.21001C14.2199 5.93001 14.3799 5.77001 14.4399 5.68001C14.4999 5.59001 14.5399 5.49001 14.5599 5.39001C14.5899 5.27001 14.5899 5.04001 14.5899 4.66001V2.59001C14.5899 2.31001 14.5899 2.02001 14.5699 1.94001C14.5599 1.99001 14.2699 1.99001 13.9899 1.99001H3.19985V2.00001ZM11.5999 18.5H5.59985C5.04985 18.5 4.59985 18.05 4.59985 17.5C4.59985 16.95 5.04985 16.5 5.59985 16.5H11.5999C12.1499 16.5 12.5999 16.95 12.5999 17.5C12.5999 18.05 12.1499 18.5 11.5999 18.5Z" fill="#4A86F7"/>
</svg>
