<svg width="19" height="22" viewBox="0 0 19 22" fill="none" xmlns="http://www.w3.org/2000/svg">
<path fill-rule="evenodd" clip-rule="evenodd" d="M10.2 2.01985C10.0143 2.00293 9.7391 2 9.21173 2H5.99995C5.14337 2 4.56108 2.00078 4.11099 2.03755C3.67257 2.07337 3.44837 2.1383 3.29197 2.21799C2.91565 2.40974 2.60969 2.7157 2.41794 3.09202C2.33825 3.24842 2.27332 3.47262 2.2375 3.91104C2.20073 4.36113 2.19995 4.94342 2.19995 5.8V16.2C2.19995 17.0566 2.20073 17.6389 2.2375 18.089C2.27332 18.5274 2.33825 18.7516 2.41794 18.908C2.60969 19.2843 2.91565 19.5903 3.29197 19.782C3.44837 19.8617 3.67257 19.9266 4.11099 19.9625C4.56108 19.9992 5.14337 20 5.99995 20H12.4C13.2565 20 13.8388 19.9992 14.2889 19.9625C14.7273 19.9266 14.9515 19.8617 15.1079 19.782C15.4843 19.5903 15.7902 19.2843 15.982 18.908C16.0617 18.7516 16.1266 18.5274 16.1624 18.089C16.1992 17.6389 16.2 17.0566 16.2 16.2V8.98823C16.2 8.46093 16.197 8.18577 16.1801 8.00007L12.7681 8.00008C12.5157 8.00011 12.2699 8.00014 12.0617 7.98313C11.8331 7.96445 11.5634 7.92038 11.292 7.78209C10.9156 7.59034 10.6097 7.28438 10.4179 6.90805C10.2796 6.63663 10.2356 6.3669 10.2169 6.1383C10.1999 5.93014 10.1999 5.68434 10.2 5.43196L10.2 2.01985ZM11.5935 0.349968C11.3677 0.248708 11.1325 0.168483 10.8911 0.110522C10.4284 -0.000560626 9.94861 -0.000332221 9.31361 -3.01446e-05C9.28009 -1.41705e-05 9.24613 2.04195e-06 9.21173 2.04195e-06L5.95865 1.56511e-06C5.15368 -1.11903e-05 4.48932 -2.16812e-05 3.94813 0.0441957C3.38603 0.0901209 2.86933 0.188685 2.38399 0.435976C1.63134 0.819469 1.01942 1.43139 0.635926 2.18404C0.388635 2.66938 0.290071 3.18608 0.244146 3.74818C0.199928 4.28937 0.199939 4.95373 0.199952 5.7587V16.2413C0.199939 17.0463 0.199928 17.7106 0.244146 18.2518C0.290071 18.8139 0.388635 19.3306 0.635926 19.816C1.01942 20.5686 1.63134 21.1805 2.38399 21.564C2.86933 21.8113 3.38603 21.9099 3.94813 21.9558C4.48932 22 5.15367 22 5.95863 22H12.4413C13.2462 22 13.9106 22 14.4518 21.9558C15.0139 21.9099 15.5306 21.8113 16.0159 21.564C16.7686 21.1805 17.3805 20.5686 17.764 19.816C18.0113 19.3306 18.1098 18.8139 18.1558 18.2518C18.2 17.7106 18.2 17.0463 18.2 16.2413V8.98823C18.2 8.95382 18.2 8.91987 18.2 8.88636C18.2003 8.25135 18.2005 7.77156 18.0894 7.30886C18.0316 7.06813 17.9517 6.83366 17.8509 6.60837C17.8446 6.59369 17.838 6.57919 17.8311 6.56488C17.7658 6.42349 17.6921 6.28583 17.6105 6.15265C17.3619 5.74692 17.0225 5.40782 16.5732 4.95901C16.5495 4.93533 16.5255 4.91133 16.5012 4.88701L13.3129 1.69878C13.2886 1.67445 13.2646 1.65043 13.2409 1.62672C12.7921 1.1775 12.453 0.838068 12.0473 0.589441C11.9136 0.507495 11.7753 0.433604 11.6334 0.368078C11.6202 0.361761 11.607 0.355722 11.5935 0.349968ZM12.2 3.41422V5.40007C12.2 5.6966 12.2007 5.85885 12.2103 5.97544C12.2106 5.98008 12.211 5.98447 12.2114 5.98862C12.2156 5.98901 12.2199 5.98939 12.2246 5.98977C12.3412 5.9993 12.5034 6.00007 12.8 6.00007H14.7858L12.2 3.41422ZM4.19995 12C4.19995 11.4477 4.64767 11 5.19995 11H13.2C13.7522 11 14.2 11.4477 14.2 12C14.2 12.5523 13.7522 13 13.2 13H5.19995C4.64767 13 4.19995 12.5523 4.19995 12ZM4.19995 16C4.19995 15.4477 4.64767 15 5.19995 15H11.2C11.7522 15 12.2 15.4477 12.2 16C12.2 16.5523 11.7522 17 11.2 17H5.19995C4.64767 17 4.19995 16.5523 4.19995 16Z" fill="#4A86F7"/>
</svg>
